<svg height='300px' width='300px'  fill="#e3e3e3" xmlns="http://www.w3.org/2000/svg" xmlns:xlink="http://www.w3.org/1999/xlink" version="1.1" x="0px" y="0px" viewBox="0 0 100 100" style="enable-background:new 0 0 100 100;" xml:space="preserve"><g><path d="M20.7,34l3.6,46c0.2,3.5,3.3,6.2,6.9,6.2h37.6c3.7,0,6.7-2.7,6.9-6.2l3.6-46H20.7z M62.1,65c1.5,1.5,1.5,3.9,0,5.4   c-0.7,0.8-1.7,1.1-2.7,1.1c-1,0-1.9-0.4-2.7-1.1L50,63.6l-6.7,6.7c-0.7,0.8-1.7,1.1-2.7,1.1c-1,0-1.9-0.4-2.7-1.1   c-1.5-1.5-1.5-3.9,0-5.4l6.7-6.7l-6.7-6.7c-1.5-1.5-1.5-3.9,0-5.4c1.5-1.5,3.9-1.5,5.4,0l6.7,6.7l6.7-6.7c1.5-1.5,3.9-1.5,5.4,0   c1.5,1.5,1.5,3.9,0,5.4l-6.7,6.7L62.1,65z"></path><path d="M81.9,18.7H64.3l-0.6-3.4c-0.2-0.9-0.9-1.6-1.8-1.6H38.3c-0.9,0-1.6,0.7-1.8,1.6L36,18.7H18.1c-1.2,0-2.2,1-2.2,2.2v7.9   c0,1.2,1,2.2,2.2,2.2h63.8c1.2,0,2.2-1,2.2-2.2v-7.9C84.1,19.7,83.1,18.7,81.9,18.7z"></path></g></svg>